<svg width="19" height="18" viewBox="0 0 19 18" fill="none" xmlns="http://www.w3.org/2000/svg">
<path fill-rule="evenodd" clip-rule="evenodd" d="M9.13557 1.5C4.99557 1.5 1.64307 4.86 1.64307 9C1.64307 13.14 4.99557 16.5 9.13557 16.5C13.2831 16.5 16.6431 13.14 16.6431 9C16.6431 4.86 13.2831 1.5 9.13557 1.5ZM9.14307 15C5.82807 15 3.14307 12.315 3.14307 9C3.14307 5.685 5.82807 3 9.14307 3C12.4581 3 15.1431 5.685 15.1431 9C15.1431 12.315 12.4581 15 9.14307 15ZM8.39307 5.25H9.51807V9.1875L12.8931 11.19L12.3306 12.1125L8.39307 9.75V5.25Z" fill="black" fill-opacity="0.38"/>
</svg>
