<svg width="19" height="18" viewBox="0 0 19 18" fill="none" xmlns="http://www.w3.org/2000/svg">
<mask id="mask0" mask-type="alpha" maskUnits="userSpaceOnUse" x="0" y="0" width="19" height="18">
<rect x="0.117676" width="18" height="18" rx="9" fill="#C4C4C4"/>
</mask>
<g mask="url(#mask0)">
<rect x="0.117676" width="18" height="18" fill="white"/>
<rect x="0.117676" width="18" height="18" fill="black" fill-opacity="0.08"/>
<path fill-rule="evenodd" clip-rule="evenodd" d="M12.1595 13.5444C12.0792 13.4589 11.9672 13.4105 11.8499 13.4105C11.7327 13.4105 11.6206 13.4589 11.5403 13.5444L9.11752 15.6756L6.69472 13.5444C6.61442 13.4589 6.50238 13.4105 6.38512 13.4105C6.26785 13.4105 6.15581 13.4589 6.07552 13.5444C5.71552 13.8432 4.69312 14.7468 4.69312 14.7468C4.69312 14.7468 5.45992 16.086 5.90992 16.3848C6.35992 16.6836 6.39592 17.0004 7.34992 17.3172C8.30392 17.634 8.51992 17.634 8.73232 17.7852C8.8344 17.8595 8.93179 17.9401 9.02392 18.0264L9.04192 18.0912L9.11752 18.1848C9.66363 17.811 10.26 17.5165 10.8887 17.31C11.8391 16.9932 11.8787 16.6764 12.3287 16.3776C12.7787 16.0788 13.5455 14.7396 13.5455 14.7396C13.5455 14.7396 12.5123 13.8432 12.1595 13.5444Z" fill="white"/>
<path fill-rule="evenodd" clip-rule="evenodd" d="M11.8609 14.7108C11.8609 13.746 11.7205 12.0792 11.7205 12.0792L9.11771 12.63L6.51491 12.072C6.51491 12.072 6.37451 13.7388 6.37451 14.7036C6.37451 15.6684 7.19891 17.4036 9.11411 17.4072V17.4072C11.0365 17.4108 11.8609 15.6756 11.8609 14.7108Z" fill="#E6E6E6"/>
<path fill-rule="evenodd" clip-rule="evenodd" d="M14.55 15.2436C14.55 15.2436 13.3152 15.5424 12.6708 16.2336C12.0264 16.9248 10.7952 17.3748 10.1976 17.562C9.79678 17.6872 9.42817 17.8985 9.11762 18.1812C8.81231 17.9008 8.45006 17.6896 8.05562 17.562C7.44002 17.3748 6.21242 16.9248 5.56442 16.2336C4.91642 15.5424 3.68522 15.2436 3.68522 15.2436L-0.0551758 16.7772V21.1728H18.3048V16.7772L14.55 15.2436Z" fill="#9E9E9E"/>
<path fill-rule="evenodd" clip-rule="evenodd" d="M5.15752 15.0204C5.30033 14.7218 5.4954 14.4511 5.73352 14.2212C5.95168 14.0611 6.18018 13.9156 6.41752 13.7856L6.44992 13.1988L6.06832 13.2564L4.87672 13.7892L4.70752 14.3616L5.15752 15.0204Z" fill="#9E9E9E"/>
<path fill-rule="evenodd" clip-rule="evenodd" d="M13.0776 15.0204C12.9347 14.7218 12.7397 14.4511 12.5016 14.2212C12.2834 14.0611 12.0549 13.9156 11.8176 13.7856L11.7852 13.1988L12.1668 13.2564L13.3584 13.7892L13.5276 14.3616L13.0776 15.0204Z" fill="#9E9E9E"/>
<path fill-rule="evenodd" clip-rule="evenodd" d="M9.11769 18.228C9.11769 18.228 9.24369 17.7924 7.90089 17.346C6.93213 17.0836 6.1151 16.4321 5.64369 15.546C5.25129 14.8584 5.18289 14.3832 5.01369 14.1744C4.84449 13.9656 4.88769 13.8144 5.33409 13.656C5.78049 13.4976 6.43209 13.206 6.43209 13.206V12.9936C6.17732 13.1502 5.90239 13.2713 5.61489 13.3536C5.23749 13.4354 4.89217 13.6256 4.62129 13.9008L4.32609 14.304C4.21277 14.2983 4.10337 14.3463 4.03089 14.4336C3.91969 14.5868 3.8435 14.7625 3.80769 14.9484C3.80769 15.0348 3.58449 15.0204 3.48729 15.078C3.39009 15.1356 3.28929 15.384 3.48729 15.456C4.19995 15.7659 4.88008 16.1457 5.51769 16.59C6.24766 17.1407 7.09764 17.5108 7.99809 17.67C8.89449 17.8068 9.11769 18.228 9.11769 18.228Z" fill="#C7C7C7"/>
<path fill-rule="evenodd" clip-rule="evenodd" d="M9.11766 18.228C9.11766 18.228 8.98446 17.7924 10.3273 17.346C11.296 17.0836 12.1131 16.4321 12.5845 15.546C12.9769 14.8584 13.0453 14.3832 13.2145 14.1744C13.3837 13.9656 13.3405 13.8144 12.8941 13.656C12.4477 13.4976 11.8141 13.206 11.8141 13.206V12.9936C12.0688 13.1502 12.3438 13.2713 12.6313 13.3536C13.0087 13.4354 13.354 13.6256 13.6249 13.9008C13.7797 14.1096 14.1145 14.2932 14.2153 14.4336C14.3765 14.6645 14.5585 14.8801 14.7589 15.078C14.8597 15.132 14.9569 15.384 14.7589 15.456C14.0425 15.7652 13.3587 16.1451 12.7177 16.59C11.9877 17.1407 11.1377 17.5108 10.2373 17.67C9.34086 17.8068 9.11766 18.228 9.11766 18.228Z" fill="#C7C7C7"/>
<path fill-rule="evenodd" clip-rule="evenodd" d="M13.1927 8.00759C13.0808 7.99135 12.9674 8.02564 12.8831 8.10119C12.8675 7.81821 12.893 7.53447 12.9587 7.25879C13.0775 6.69719 12.7823 4.70999 12.7823 4.70999L9.11755 2.97119L5.45994 4.70999C5.45994 4.70999 5.17194 6.69719 5.28354 7.25879C5.3493 7.53447 5.37476 7.81821 5.35914 8.10119C5.27738 8.02388 5.16417 7.98925 5.05314 8.00759C4.90554 8.05799 4.78674 8.19119 4.91994 8.45039C5.04753 8.76364 5.11354 9.09855 5.11434 9.43679C5.0961 9.79649 5.20015 10.1518 5.40954 10.4448C5.64714 10.6788 5.76954 10.6932 5.76954 10.6932C5.80211 11.2423 5.94668 11.7789 6.19434 12.27C6.62154 12.8503 7.10378 13.388 7.63435 13.8756C8.00765 14.3024 8.55062 14.5423 9.11755 14.5308V14.5308C9.69073 14.539 10.238 14.2924 10.6115 13.8576C11.1422 13.37 11.6244 12.8323 12.0515 12.252C12.305 11.7685 12.4558 11.2378 12.4943 10.6932C12.4943 10.6932 12.5987 10.6932 12.8543 10.4448C13.0653 10.1525 13.1695 9.79669 13.1495 9.43679C13.1516 9.09833 13.2188 8.76343 13.3475 8.45039C13.4591 8.19119 13.3367 8.05799 13.1927 8.00759Z" fill="white"/>
<path fill-rule="evenodd" clip-rule="evenodd" d="M5.55003 9.44401C5.55003 9.44401 5.55003 8.64481 5.55003 7.93201C5.55003 7.21921 5.39163 6.45961 5.62923 6.05281C5.86683 5.64601 6.10803 6.08161 6.68403 5.54881C7.26003 5.01601 7.48323 4.73881 7.84683 4.72441C8.21043 4.71001 8.95203 4.87921 9.64683 4.62721C10.3416 4.37521 10.7808 4.10881 11.0472 4.22041C11.3136 4.33201 11.1192 4.89001 11.6088 5.17081C12.0984 5.45161 12.4224 5.35441 12.4476 5.99881C12.4728 6.64321 12.4764 7.73401 12.5196 8.15881C12.5628 8.58361 12.6024 9.23881 12.6024 9.23881C12.7735 8.96936 12.9148 8.68207 13.0236 8.38201C13.092 8.09041 13.4052 8.02201 13.3836 7.78081C13.362 7.53961 13.4916 7.55761 13.5492 7.27681C13.566 6.83198 13.5468 6.38653 13.4916 5.94481C13.4628 5.37241 13.5492 4.57321 13.2972 4.24921C13.0452 3.92521 12.498 3.52921 12.4152 3.32401C12.2836 3.0921 12.0889 2.90233 11.8536 2.77681C11.7132 2.73361 11.7132 2.03521 11.0544 1.83721C10.3956 1.63921 10.1724 1.83721 10.1724 1.83721C9.71651 1.57038 9.18175 1.47107 8.66043 1.55641C8.35141 1.61052 8.05856 1.73357 7.80363 1.91641C7.5957 1.93579 7.39739 2.01312 7.23123 2.13961C7.04763 2.31961 6.93603 2.56081 6.72723 2.65801C6.51843 2.75521 6.10803 2.50321 5.87043 2.75521C5.7083 2.94902 5.58597 3.17288 5.51043 3.41401C5.32748 3.32431 5.10811 3.35729 4.95963 3.49681C4.5763 3.859 4.42162 4.40176 4.55643 4.91161C4.70903 5.24975 4.76151 5.62456 4.70763 5.99161C4.70287 6.40952 4.75495 6.82613 4.86243 7.23001C4.92003 7.48201 4.89123 8.01481 5.03163 8.14081C5.18089 8.28152 5.27959 8.46752 5.31243 8.67001C5.33763 8.86081 5.24043 8.95801 5.34483 9.15601C5.40273 9.25907 5.47152 9.35563 5.55003 9.44401Z" fill="#757575"/>
</g>
</svg>
