<svg width="19" height="18" viewBox="0 0 19 18" fill="none" xmlns="http://www.w3.org/2000/svg">
<path fill-rule="evenodd" clip-rule="evenodd" d="M15.9187 15C15.9187 15.825 15.2437 16.5 14.4187 16.5H3.9187C3.0862 16.5 2.4187 15.825 2.4187 15L2.4262 4.5C2.4262 3.675 3.0862 3 3.9187 3H4.6687V1.5H6.1687V3H12.1687V1.5H13.6687V3H14.4187C15.2437 3 15.9187 3.675 15.9187 4.5V15ZM14.4187 6H3.9187V4.5H14.4187V6ZM14.4187 15V7.5H3.9187V15H14.4187ZM8.57403 13.7035L12.4794 9.79816L11.4187 8.7375L8.57403 11.5822L7.22936 10.2375L6.1687 11.2982L8.57403 13.7035Z" fill="black" fill-opacity="0.38"/>
</svg>
