<svg width="20" height="20" viewBox="0 0 20 20" fill="none" xmlns="http://www.w3.org/2000/svg">
<path fill-rule="evenodd" clip-rule="evenodd" d="M4.73357 5.91153C3.85597 7.04045 3.33337 8.45903 3.33337 9.99967C3.33337 10.3073 3.35422 10.6101 3.39456 10.9067L5.02194 10.4707C5.00745 10.3156 5.00004 10.1585 5.00004 9.99967C5.00004 8.91977 5.3424 7.91982 5.92449 7.10245L4.73357 5.91153ZM5.9121 4.73304L7.10303 5.92397C7.70545 5.495 8.40704 5.19625 9.16671 5.0688V3.38458C7.94949 3.53637 6.83419 4.01629 5.9121 4.73304ZM9.16671 16.6148C6.73967 16.3121 4.71778 14.7048 3.82496 12.5169L5.4524 12.0808C6.13089 13.561 7.5108 14.6527 9.16671 14.9305V16.6148ZM10.8334 14.9305C13.1981 14.5338 15 12.4772 15 9.99967C15 7.52217 13.1981 5.46553 10.8334 5.0688V3.38458C14.122 3.79466 16.6667 6.59999 16.6667 9.99967C16.6667 13.3994 14.122 16.2047 10.8334 16.6148V14.9305Z" fill="black" fill-opacity="0.54"/>
</svg>
