<svg width="18" height="18" viewBox="0 0 18 18" fill="none" xmlns="http://www.w3.org/2000/svg">
<path fill-rule="evenodd" clip-rule="evenodd" d="M12.499 2.57486C12.0769 2.14218 11.3841 2.14118 10.9614 2.57554L3.31875 10.4305C3.21307 10.5392 3.14277 10.6772 3.11712 10.8266L2.42209 14.8729C2.38066 15.1142 2.45953 15.3604 2.6334 15.5327C2.80727 15.7049 3.05426 15.7815 3.29509 15.7379L7.23239 15.0239C7.38606 14.996 7.5272 14.9208 7.63611 14.8089L13.0796 9.21416C13.0814 9.21239 13.0831 9.21062 13.0848 9.20883L15.2788 6.95391C15.6899 6.53143 15.6899 5.85435 15.2788 5.43188L12.499 2.57486ZM12.5444 7.61327L13.9264 6.19289L11.7306 3.93605L10.3486 5.35643L12.5444 7.61327ZM9.30215 6.43192L4.55608 11.3098L4.08185 14.0707L6.72847 13.5908L11.498 8.68876L9.30215 6.43192Z" fill="black" fill-opacity="0.54"/>
</svg>
