<svg width="18" height="18" viewBox="0 0 18 18" fill="none" xmlns="http://www.w3.org/2000/svg">
<path fill-rule="evenodd" clip-rule="evenodd" d="M12.2399 11.1792C13.0297 10.1632 13.5 8.88653 13.5 7.5C13.5 4.18629 10.8137 1.5 7.5 1.5C4.18629 1.5 1.5 4.18629 1.5 7.5C1.5 10.8137 4.18629 13.5 7.5 13.5C8.88654 13.5 10.1632 13.0297 11.1792 12.2399L15.091 16.1516L16.1517 15.091L12.2399 11.1792ZM7.5 12C9.98528 12 12 9.98528 12 7.5C12 5.01472 9.98528 3 7.5 3C5.01472 3 3 5.01472 3 7.5C3 9.98528 5.01472 12 7.5 12Z" fill="black" fill-opacity="0.38"/>
</svg>
